<svg width="1512" height="982" viewBox="0 0 1512 982" fill="none" xmlns="http://www.w3.org/2000/svg">
<rect width="1512" height="982" fill="#2B6767"/>
<path d="M1382 822.5C1407.18 822.5 1427.5 840.904 1427.5 863.5C1427.5 886.096 1407.18 904.5 1382 904.5C1356.82 904.5 1336.5 886.096 1336.5 863.5C1336.5 840.904 1356.82 822.5 1382 822.5Z" stroke="white"/>
<path d="M1395.15 845.636V882H1391.92L1370.43 851.549H1370.15V882H1366.83V845.636H1370.04L1391.6 876.123H1391.88V845.636H1395.15Z" fill="white"/>
<path d="M630.5 73H96.5V885.5H630.5" stroke="white" stroke-width="0.5" stroke-linecap="round"/>
<path d="M676.54 899.14C675.02 899.14 673.92 898.9 673.24 898.42C672.56 897.94 672.16 897.42 672.04 896.86C671.88 896.3 671.8 895.88 671.8 895.6C671.84 895.08 672.08 894.66 672.52 894.34C672.92 894.02 673.38 893.86 673.9 893.86C674.22 893.86 674.5 893.94 674.74 894.1C674.98 894.22 675.1 894.5 675.1 894.94C675.1 895.34 674.96 895.62 674.68 895.78C674.4 895.94 674.1 896.02 673.78 896.02C673.5 896.02 673.26 895.98 673.06 895.9C672.82 895.82 672.7 895.78 672.7 895.78C672.7 896.86 673.1 897.58 673.9 897.94C674.7 898.3 675.6 898.48 676.6 898.48C678.16 898.48 679.76 898.04 681.4 897.16C683.08 896.28 684.8 895.12 686.56 893.68C688.32 892.2 690.12 890.56 691.96 888.76C693.84 886.92 695.76 885.08 697.72 883.24C699.84 881.24 701.94 879.26 704.02 877.3C706.14 875.3 708.18 873.5 710.14 871.9C712.1 870.3 713.92 869.02 715.6 868.06C717.28 867.1 718.78 866.62 720.1 866.62C720.54 866.62 720.72 866.7 720.64 866.86C720.6 867.02 720.28 867.14 719.68 867.22C718.28 867.46 716.74 868.1 715.06 869.14C713.42 870.14 711.68 871.44 709.84 873.04C708 874.6 706.1 876.32 704.14 878.2C702.22 880.04 700.26 881.9 698.26 883.78C696.42 885.54 694.56 887.32 692.68 889.12C690.84 890.92 689 892.58 687.16 894.1C685.36 895.62 683.56 896.84 681.76 897.76C680 898.68 678.26 899.14 676.54 899.14ZM695.02 896.44C694.78 896.52 694.5 896.58 694.18 896.62C693.9 896.62 693.82 896.52 693.94 896.32C694.06 896.12 694.28 895.78 694.6 895.3C694.96 894.78 695.28 894.16 695.56 893.44C695.88 892.72 696.04 891.98 696.04 891.22C696.04 890.22 695.86 889.08 695.5 887.8C695.18 886.48 694.64 885.2 693.88 883.96C693.16 882.72 692.18 881.7 690.94 880.9C689.74 880.06 688.26 879.64 686.5 879.64C685.34 879.64 684.34 879.92 683.5 880.48C682.7 881.04 682.08 881.72 681.64 882.52C681.24 883.28 681.04 884.02 681.04 884.74C681.04 886.3 681.5 887.78 682.42 889.18C683.38 890.58 684.82 891.72 686.74 892.6C688.66 893.44 691.04 893.86 693.88 893.86C697 893.86 699.8 893.32 702.28 892.24C704.76 891.16 706.84 889.76 708.52 888.04C710.2 886.32 711.38 884.52 712.06 882.64C712.26 882.04 712.42 881.84 712.54 882.04C712.7 882.2 712.78 882.36 712.78 882.52C712.78 883.88 712.32 885.26 711.4 886.66C710.48 888.06 709.18 889.36 707.5 890.56C705.82 891.72 703.88 892.66 701.68 893.38C699.48 894.1 697.08 894.46 694.48 894.46C691.8 894.46 689.32 894.08 687.04 893.32C684.8 892.56 682.98 891.44 681.58 889.96C680.22 888.48 679.54 886.7 679.54 884.62C679.54 883.22 680.12 881.94 681.28 880.78C682.48 879.58 684.22 878.98 686.5 878.98C688.42 878.98 690.02 879.42 691.3 880.3C692.62 881.18 693.68 882.26 694.48 883.54C695.28 884.82 695.86 886.1 696.22 887.38C696.58 888.66 696.76 889.72 696.76 890.56C696.76 891.48 696.64 892.4 696.4 893.32C696.16 894.2 695.9 894.94 695.62 895.54C695.38 896.1 695.18 896.4 695.02 896.44ZM691.48 899.02C691.52 898.98 691.92 898.5 692.68 897.58C693.44 896.66 694.44 895.44 695.68 893.92C696.92 892.4 698.32 890.7 699.88 888.82C701.44 886.9 703.06 884.94 704.74 882.94C706.42 880.94 708.06 879 709.66 877.12C711.3 875.2 712.8 873.48 714.16 871.96C715.56 870.4 716.72 869.16 717.64 868.24C718.6 867.32 719.22 866.84 719.5 866.8C719.7 866.72 719.88 866.72 720.04 866.8C720.2 866.88 720.16 867.02 719.92 867.22C719.76 867.34 719.2 868 718.24 869.2C717.28 870.36 716.06 871.9 714.58 873.82C713.14 875.7 711.56 877.78 709.84 880.06C708.16 882.3 706.48 884.54 704.8 886.78C703.12 888.98 701.58 891.02 700.18 892.9C698.82 894.74 697.7 896.22 696.82 897.34C695.98 898.46 695.54 899.02 695.5 899.02C695.34 898.98 695.06 898.94 694.66 898.9C694.3 898.86 693.94 898.84 693.58 898.84C693.22 898.84 692.8 898.86 692.32 898.9C691.88 898.98 691.6 899.02 691.48 899.02ZM724.93 898.54C722.81 898.54 721.75 897.92 721.75 896.68C721.75 895.88 722.01 895.02 722.53 894.1C723.09 893.18 723.77 892.26 724.57 891.34C725.37 890.38 726.17 889.44 726.97 888.52C727.81 887.6 728.49 886.76 729.01 886C729.57 885.2 729.85 884.52 729.85 883.96C729.85 883.76 729.75 883.6 729.55 883.48C729.39 883.32 729.15 883.24 728.83 883.24C728.35 883.24 727.67 883.48 726.79 883.96C725.95 884.44 724.87 885.26 723.55 886.42C722.27 887.54 720.75 889.06 718.99 890.98C717.23 892.86 715.21 895.22 712.93 898.06C712.57 897.98 712.03 897.94 711.31 897.94C710.59 897.94 709.97 898.02 709.45 898.18C710.61 896.5 711.75 894.86 712.87 893.26C713.99 891.66 715.01 890.2 715.93 888.88C716.89 887.56 717.65 886.48 718.21 885.64C718.77 884.76 719.05 884.22 719.05 884.02C719.05 883.66 718.87 883.48 718.51 883.48C718.11 883.48 717.61 883.8 717.01 884.44C716.41 885.04 715.75 885.82 715.03 886.78C714.31 887.7 713.57 888.64 712.81 889.6L712.27 889.24C713.07 888.32 713.85 887.36 714.61 886.36C715.37 885.36 716.15 884.5 716.95 883.78C717.75 883.06 718.59 882.7 719.47 882.7C719.91 882.7 720.31 882.82 720.67 883.06C721.07 883.26 721.27 883.6 721.27 884.08C721.27 884.52 721.09 885.06 720.73 885.7C720.41 886.3 719.97 887 719.41 887.8C718.85 888.56 718.21 889.42 717.49 890.38C716.81 891.3 716.09 892.3 715.33 893.38L715.39 893.74C717.51 891.42 719.29 889.54 720.73 888.1C722.21 886.66 723.43 885.56 724.39 884.8C725.39 884 726.25 883.46 726.97 883.18C727.73 882.86 728.45 882.7 729.13 882.7C730.05 882.7 730.71 882.9 731.11 883.3C731.51 883.66 731.71 884.16 731.71 884.8C731.71 885.76 731.43 886.78 730.87 887.86C730.31 888.9 729.61 889.94 728.77 890.98C727.97 891.98 727.15 892.92 726.31 893.8C725.51 894.64 724.83 895.36 724.27 895.96C723.71 896.56 723.43 896.96 723.43 897.16C723.43 897.4 723.49 897.58 723.61 897.7C723.77 897.82 724.15 897.88 724.75 897.88C726.23 897.88 727.63 897.42 728.95 896.5C730.31 895.58 731.61 894.46 732.85 893.14C734.09 891.78 735.25 890.44 736.33 889.12L736.81 889.54C735.73 890.82 734.55 892.16 733.27 893.56C731.99 894.96 730.65 896.14 729.25 897.1C727.85 898.06 726.41 898.54 724.93 898.54ZM746.614 882.7C748.614 882.7 749.614 883.66 749.614 885.58C749.614 887.06 749.274 888.58 748.594 890.14C747.914 891.66 746.994 893.06 745.834 894.34C744.674 895.58 743.414 896.6 742.054 897.4C740.694 898.16 739.314 898.54 737.914 898.54C736.834 898.54 735.934 898.28 735.214 897.76C734.454 897.2 734.074 896.3 734.074 895.06C734.074 893.9 734.414 892.62 735.094 891.22C735.774 889.78 736.694 888.42 737.854 887.14C739.054 885.86 740.394 884.8 741.874 883.96C743.394 883.12 744.974 882.7 746.614 882.7ZM747.274 883.54C746.594 883.54 745.794 883.84 744.874 884.44C743.954 885.04 743.014 885.82 742.054 886.78C741.094 887.74 740.194 888.78 739.354 889.9C738.554 890.98 737.894 892.04 737.374 893.08C736.894 894.12 736.654 895 736.654 895.72C736.654 896.52 736.874 897.08 737.314 897.4C737.754 897.68 738.254 897.82 738.814 897.82C739.734 897.82 740.774 897.44 741.934 896.68C743.094 895.88 744.214 894.88 745.294 893.68C746.374 892.48 747.254 891.22 747.934 889.9C748.654 888.54 749.014 887.3 749.014 886.18C749.014 885.14 748.834 884.44 748.474 884.08C748.114 883.72 747.714 883.54 747.274 883.54ZM748.354 889.72C748.554 889.72 748.634 889.8 748.594 889.96C748.594 890.08 748.494 890.14 748.294 890.14C748.134 890.14 747.894 890.36 747.574 890.8C747.294 891.2 747.034 891.62 746.794 892.06C746.554 892.5 746.434 892.74 746.434 892.78C746.434 893.7 746.774 894.16 747.454 894.16C748.094 894.16 748.814 893.86 749.614 893.26C750.454 892.66 751.254 891.98 752.014 891.22C752.814 890.42 753.454 889.72 753.934 889.12L754.414 889.54C753.894 890.14 753.234 890.86 752.434 891.7C751.634 892.5 750.794 893.22 749.914 893.86C749.034 894.46 748.214 894.76 747.454 894.76C746.814 894.76 746.374 894.62 746.134 894.34C745.894 894.06 745.774 893.56 745.774 892.84C745.774 891.88 746.094 891.12 746.734 890.56C747.414 890 747.954 889.72 748.354 889.72ZM766.531 898.54C764.411 898.54 763.351 897.92 763.351 896.68C763.351 895.88 763.611 895.02 764.131 894.1C764.691 893.18 765.371 892.26 766.171 891.34C766.971 890.38 767.771 889.44 768.571 888.52C769.411 887.6 770.091 886.76 770.611 886C771.171 885.2 771.451 884.52 771.451 883.96C771.451 883.76 771.351 883.6 771.151 883.48C770.991 883.32 770.751 883.24 770.431 883.24C769.951 883.24 769.271 883.48 768.391 883.96C767.551 884.44 766.471 885.26 765.151 886.42C763.871 887.54 762.351 889.06 760.591 890.98C758.831 892.86 756.811 895.22 754.531 898.06C754.171 897.98 753.631 897.94 752.911 897.94C752.191 897.94 751.571 898.02 751.051 898.18C752.211 896.5 753.351 894.86 754.471 893.26C755.591 891.66 756.611 890.2 757.531 888.88C758.491 887.56 759.251 886.48 759.811 885.64C760.371 884.76 760.651 884.22 760.651 884.02C760.651 883.66 760.471 883.48 760.111 883.48C759.711 883.48 759.211 883.8 758.611 884.44C758.011 885.04 757.351 885.82 756.631 886.78C755.911 887.7 755.171 888.64 754.411 889.6L753.871 889.24C754.671 888.32 755.451 887.36 756.211 886.36C756.971 885.36 757.751 884.5 758.551 883.78C759.351 883.06 760.191 882.7 761.071 882.7C761.511 882.7 761.911 882.82 762.271 883.06C762.671 883.26 762.871 883.6 762.871 884.08C762.871 884.52 762.691 885.06 762.331 885.7C762.011 886.3 761.571 887 761.011 887.8C760.451 888.56 759.811 889.42 759.091 890.38C758.411 891.3 757.691 892.3 756.931 893.38L756.991 893.74C759.111 891.42 760.891 889.54 762.331 888.1C763.811 886.66 765.031 885.56 765.991 884.8C766.991 884 767.851 883.46 768.571 883.18C769.331 882.86 770.051 882.7 770.731 882.7C771.651 882.7 772.311 882.9 772.711 883.3C773.111 883.66 773.311 884.16 773.311 884.8C773.311 885.76 773.031 886.78 772.471 887.86C771.911 888.9 771.211 889.94 770.371 890.98C769.571 891.98 768.751 892.92 767.911 893.8C767.111 894.64 766.431 895.36 765.871 895.96C765.311 896.56 765.031 896.96 765.031 897.16C765.031 897.4 765.091 897.58 765.211 897.7C765.371 897.82 765.751 897.88 766.351 897.88C767.831 897.88 769.231 897.42 770.551 896.5C771.911 895.58 773.211 894.46 774.451 893.14C775.691 891.78 776.851 890.44 777.931 889.12L778.411 889.54C777.331 890.82 776.151 892.16 774.871 893.56C773.591 894.96 772.251 896.14 770.851 897.1C769.451 898.06 768.011 898.54 766.531 898.54ZM783.836 882.76C784.396 882.92 784.976 883 785.576 883C786.176 882.96 786.796 882.92 787.436 882.88C786.356 883.92 785.136 885.16 783.776 886.6C782.456 888 781.176 889.42 779.936 890.86C778.736 892.26 777.736 893.52 776.936 894.64C776.136 895.72 775.736 896.46 775.736 896.86C775.736 897.14 775.836 897.4 776.036 897.64C776.236 897.84 776.576 897.94 777.056 897.94C778.456 897.94 779.896 897.52 781.376 896.68C782.896 895.84 784.356 894.78 785.756 893.5C787.196 892.18 788.536 890.82 789.776 889.42C791.016 887.98 792.096 886.68 793.016 885.52C793.976 884.32 794.676 883.44 795.116 882.88C795.436 882.96 795.956 883 796.676 883C797.436 883 797.956 882.98 798.236 882.94C794.116 887.9 790.496 892.46 787.376 896.62C784.296 900.74 781.516 904.28 779.036 907.24C776.556 910.24 774.196 912.56 771.956 914.2C769.676 915.84 767.296 916.66 764.816 916.66C763.296 916.66 762.536 916.06 762.536 914.86C762.536 913.98 763.096 913.06 764.216 912.1C765.296 911.14 766.756 910.14 768.596 909.1C770.436 908.1 772.476 907.1 774.716 906.1C776.956 905.1 779.236 904.14 781.556 903.22C784.596 902.02 787.096 900.7 789.056 899.26C791.056 897.86 792.796 896.32 794.276 894.64C795.796 892.96 797.336 891.12 798.896 889.12L799.376 889.42C797.776 891.46 796.196 893.34 794.636 895.06C793.076 896.74 791.296 898.3 789.296 899.74C787.296 901.18 784.776 902.52 781.736 903.76C779.456 904.68 777.236 905.62 775.076 906.58C772.876 907.58 770.896 908.54 769.136 909.46C767.336 910.42 765.916 911.36 764.876 912.28C763.796 913.2 763.256 914.06 763.256 914.86C763.256 915.34 763.416 915.64 763.736 915.76C764.056 915.92 764.476 916 764.996 916C766.236 916 767.576 915.52 769.016 914.56C770.416 913.6 771.896 912.3 773.456 910.66C775.016 909.02 776.596 907.16 778.196 905.08C779.836 903.04 781.496 900.92 783.176 898.72C784.856 896.52 786.556 894.38 788.276 892.3L788.036 892.18C787.956 892.3 787.676 892.6 787.196 893.08C786.716 893.56 786.096 894.1 785.336 894.7C784.576 895.3 783.716 895.9 782.756 896.5C781.796 897.1 780.776 897.6 779.696 898C778.656 898.36 777.596 898.54 776.516 898.54C775.756 898.54 775.176 898.36 774.776 898C774.336 897.68 774.116 897.22 774.116 896.62C774.116 895.66 774.436 894.58 775.076 893.38C775.716 892.14 776.556 890.88 777.596 889.6C778.596 888.32 779.656 887.08 780.776 885.88C781.896 884.68 782.916 883.64 783.836 882.76ZM820.891 898.54C820.011 898.54 819.311 898.36 818.791 898C818.271 897.64 818.011 897.18 818.011 896.62C818.011 895.9 818.291 895.1 818.851 894.22C819.411 893.3 820.091 892.34 820.891 891.34C821.731 890.34 822.551 889.38 823.351 888.46C824.191 887.5 824.891 886.64 825.451 885.88C826.011 885.12 826.291 884.5 826.291 884.02C826.291 883.7 826.211 883.48 826.051 883.36C825.891 883.24 825.611 883.18 825.211 883.18C824.611 883.18 823.811 883.5 822.811 884.14C821.851 884.74 820.771 885.58 819.571 886.66C818.411 887.7 817.211 888.88 815.971 890.2C814.771 891.48 813.611 892.8 812.491 894.16C811.371 895.52 810.411 896.8 809.611 898C809.131 897.84 808.591 897.78 807.991 897.82C807.391 897.86 806.751 897.94 806.071 898.06C806.991 896.9 808.031 895.62 809.191 894.22C810.391 892.78 811.531 891.38 812.611 890.02C813.691 888.66 814.591 887.44 815.311 886.36C816.031 885.24 816.391 884.42 816.391 883.9C816.391 883.62 816.271 883.44 816.031 883.36C815.831 883.24 815.531 883.18 815.131 883.18C814.291 883.18 813.211 883.68 811.891 884.68C810.571 885.68 809.171 886.96 807.691 888.52C806.211 890.04 804.751 891.66 803.311 893.38C801.911 895.06 800.671 896.6 799.591 898C799.191 897.88 798.711 897.82 798.151 897.82C797.591 897.78 796.911 897.86 796.111 898.06C797.591 895.86 799.051 893.78 800.491 891.82C801.971 889.82 803.191 888.1 804.151 886.66C805.151 885.22 805.651 884.26 805.651 883.78C805.651 883.66 805.611 883.58 805.531 883.54C805.491 883.46 805.411 883.42 805.291 883.42C804.891 883.42 804.331 883.8 803.611 884.56C802.931 885.32 802.211 886.18 801.451 887.14C800.691 888.1 800.011 888.92 799.411 889.6L798.871 889.24C799.271 888.8 799.751 888.22 800.311 887.5C800.871 886.74 801.471 886 802.111 885.28C802.791 884.52 803.471 883.88 804.151 883.36C804.831 882.84 805.491 882.58 806.131 882.58C806.611 882.58 807.011 882.72 807.331 883C807.691 883.24 807.871 883.56 807.871 883.96C807.871 884.48 807.711 885.06 807.391 885.7C807.071 886.3 806.631 887 806.071 887.8C805.511 888.56 804.871 889.4 804.151 890.32C803.471 891.24 802.751 892.26 801.991 893.38L802.111 893.62C802.911 892.78 803.731 891.86 804.571 890.86C805.451 889.86 806.351 888.88 807.271 887.92C808.191 886.96 809.111 886.08 810.031 885.28C810.951 884.48 811.891 883.84 812.851 883.36C813.811 882.88 814.751 882.64 815.671 882.64C816.631 882.64 817.291 882.88 817.651 883.36C818.011 883.84 818.191 884.3 818.191 884.74C818.191 885.38 818.071 886.02 817.831 886.66C817.591 887.3 817.291 887.92 816.931 888.52C816.571 889.08 816.211 889.6 815.851 890.08C815.491 890.52 815.171 890.88 814.891 891.16C814.611 891.44 814.451 891.62 814.411 891.7L814.051 891.4C814.331 891.12 814.771 890.64 815.371 889.96C815.971 889.28 816.671 888.54 817.471 887.74C818.311 886.9 819.191 886.1 820.111 885.34C821.031 884.54 821.951 883.9 822.871 883.42C823.791 882.9 824.671 882.64 825.511 882.64C826.511 882.64 827.191 882.9 827.551 883.42C827.951 883.9 828.151 884.34 828.151 884.74C828.151 885.62 827.871 886.6 827.311 887.68C826.751 888.72 826.051 889.78 825.211 890.86C824.371 891.9 823.531 892.88 822.691 893.8C821.851 894.72 821.151 895.5 820.591 896.14C820.031 896.74 819.751 897.12 819.751 897.28C819.751 897.64 820.171 897.82 821.011 897.82C822.091 897.82 823.171 897.48 824.251 896.8C825.371 896.12 826.431 895.3 827.431 894.34C828.431 893.34 829.331 892.36 830.131 891.4C830.971 890.4 831.651 889.62 832.171 889.06L832.651 889.42C832.171 889.94 831.491 890.7 830.611 891.7C829.771 892.7 828.811 893.74 827.731 894.82C826.651 895.86 825.531 896.74 824.371 897.46C823.211 898.18 822.051 898.54 820.891 898.54ZM842.357 882.7C844.357 882.7 845.357 883.66 845.357 885.58C845.357 887.06 845.017 888.58 844.337 890.14C843.657 891.66 842.737 893.06 841.577 894.34C840.417 895.58 839.157 896.6 837.797 897.4C836.437 898.16 835.057 898.54 833.657 898.54C832.577 898.54 831.677 898.28 830.957 897.76C830.197 897.2 829.817 896.3 829.817 895.06C829.817 893.9 830.157 892.62 830.837 891.22C831.517 889.78 832.437 888.42 833.597 887.14C834.797 885.86 836.137 884.8 837.617 883.96C839.137 883.12 840.717 882.7 842.357 882.7ZM843.017 883.54C842.337 883.54 841.537 883.84 840.617 884.44C839.697 885.04 838.757 885.82 837.797 886.78C836.837 887.74 835.937 888.78 835.097 889.9C834.297 890.98 833.637 892.04 833.117 893.08C832.637 894.12 832.397 895 832.397 895.72C832.397 896.52 832.617 897.08 833.057 897.4C833.497 897.68 833.997 897.82 834.557 897.82C835.477 897.82 836.517 897.44 837.677 896.68C838.837 895.88 839.957 894.88 841.037 893.68C842.117 892.48 842.997 891.22 843.677 889.9C844.397 888.54 844.757 887.3 844.757 886.18C844.757 885.14 844.577 884.44 844.217 884.08C843.857 883.72 843.457 883.54 843.017 883.54ZM844.097 889.72C844.297 889.72 844.377 889.8 844.337 889.96C844.337 890.08 844.237 890.14 844.037 890.14C843.877 890.14 843.637 890.36 843.317 890.8C843.037 891.2 842.777 891.62 842.537 892.06C842.297 892.5 842.177 892.74 842.177 892.78C842.177 893.7 842.517 894.16 843.197 894.16C843.837 894.16 844.557 893.86 845.357 893.26C846.197 892.66 846.997 891.98 847.757 891.22C848.557 890.42 849.197 889.72 849.677 889.12L850.157 889.54C849.637 890.14 848.977 890.86 848.177 891.7C847.377 892.5 846.537 893.22 845.657 893.86C844.777 894.46 843.957 894.76 843.197 894.76C842.557 894.76 842.117 894.62 841.877 894.34C841.637 894.06 841.517 893.56 841.517 892.84C841.517 891.88 841.837 891.12 842.477 890.56C843.157 890 843.697 889.72 844.097 889.72ZM854.953 882.76C855.313 882.92 855.853 883 856.573 883C857.333 883 857.973 882.96 858.493 882.88C857.493 884.08 856.373 885.38 855.133 886.78C853.893 888.14 852.713 889.5 851.593 890.86C850.473 892.22 849.553 893.44 848.833 894.52C848.073 895.6 847.693 896.44 847.693 897.04C847.693 897.44 847.813 897.7 848.053 897.82C848.253 897.94 848.513 898 848.833 898C849.793 898 850.853 897.62 852.013 896.86C853.213 896.1 854.433 895.12 855.673 893.92C856.953 892.68 858.193 891.36 859.393 889.96C860.593 888.56 861.693 887.24 862.693 886C863.733 884.72 864.613 883.66 865.333 882.82C865.733 882.94 866.293 883 867.013 883C867.733 883 868.353 882.96 868.873 882.88C867.833 884.2 866.673 885.6 865.393 887.08C864.113 888.52 862.873 889.92 861.673 891.28C860.513 892.6 859.553 893.78 858.793 894.82C858.033 895.82 857.653 896.58 857.653 897.1C857.653 897.34 857.753 897.54 857.953 897.7C858.193 897.82 858.513 897.88 858.913 897.88C859.793 897.88 860.733 897.58 861.733 896.98C862.773 896.34 863.793 895.56 864.793 894.64C865.833 893.68 866.813 892.72 867.733 891.76C868.693 890.76 869.513 889.88 870.193 889.12L870.673 889.54C870.033 890.22 869.233 891.08 868.273 892.12C867.353 893.12 866.333 894.12 865.213 895.12C864.133 896.08 863.033 896.9 861.913 897.58C860.793 898.22 859.733 898.54 858.733 898.54C858.173 898.54 857.653 898.38 857.173 898.06C856.693 897.74 856.453 897.16 856.453 896.32C856.453 895.56 856.633 894.78 856.993 893.98C857.353 893.14 857.733 892.42 858.133 891.82C858.533 891.18 858.773 890.8 858.853 890.68L859.273 890.86C858.913 891.38 858.333 892.08 857.533 892.96C856.773 893.8 855.873 894.66 854.833 895.54C853.833 896.38 852.773 897.1 851.653 897.7C850.533 898.26 849.433 898.54 848.353 898.54C846.633 898.54 845.773 897.64 845.773 895.84C845.773 895.08 846.093 894.18 846.733 893.14C847.373 892.06 848.193 890.92 849.193 889.72C850.153 888.48 851.153 887.26 852.193 886.06C853.233 884.86 854.153 883.76 854.953 882.76ZM868.201 899.38C866.801 899.38 865.741 899.12 865.021 898.6C864.301 898.08 863.941 897.38 863.941 896.5C863.941 895.86 864.161 895.3 864.601 894.82C865.001 894.3 865.481 893.9 866.041 893.62C866.601 893.3 867.041 893.14 867.361 893.14C867.801 893.14 868.101 893.24 868.261 893.44C868.381 893.6 868.441 893.78 868.441 893.98C868.441 894.3 868.261 894.56 867.901 894.76C867.501 894.96 867.181 895.06 866.941 895.06C866.661 895.06 866.421 894.98 866.221 894.82C865.981 894.62 865.861 894.52 865.861 894.52C865.661 894.56 865.381 894.78 865.021 895.18C864.661 895.58 864.481 896.02 864.481 896.5C864.481 896.98 864.741 897.44 865.261 897.88C865.781 898.32 866.621 898.54 867.781 898.54C868.981 898.54 870.121 898.14 871.201 897.34C872.321 896.54 873.241 895.52 873.961 894.28C874.681 893.04 875.041 891.78 875.041 890.5C875.041 890.06 875.041 889.48 875.041 888.76C875.041 888 875.041 887.38 875.041 886.9C875.041 886.3 875.141 885.62 875.341 884.86C875.541 884.06 875.761 883.32 876.001 882.64C876.281 881.96 876.501 881.54 876.661 881.38C876.981 881.1 877.221 881.02 877.381 881.14C877.541 881.26 877.581 881.38 877.501 881.5C877.461 881.54 877.201 881.86 876.721 882.46C876.241 883.02 875.641 883.72 874.921 884.56C874.201 885.4 873.481 886.24 872.761 887.08C872.041 887.92 871.401 888.66 870.841 889.3C870.321 889.94 870.021 890.32 869.941 890.44C869.741 890.72 869.561 890.78 869.401 890.62C869.241 890.46 869.281 890.26 869.521 890.02C869.961 889.46 870.501 888.8 871.141 888.04C871.821 887.24 872.501 886.46 873.181 885.7C873.861 884.94 874.441 884.3 874.921 883.78C875.441 883.22 875.721 882.9 875.761 882.82C875.881 882.66 875.981 882.38 876.061 881.98C876.181 881.58 876.321 881.2 876.481 880.84C876.681 880.48 876.921 880.3 877.201 880.3C877.881 880.3 878.221 880.54 878.221 881.02C878.221 881.38 877.941 881.82 877.381 882.34C876.861 882.86 876.561 883.28 876.481 883.6C876.361 884.08 876.361 884.76 876.481 885.64C876.641 886.48 876.801 887.44 876.961 888.52C877.161 889.6 877.261 890.74 877.261 891.94C877.261 893.54 876.941 894.84 876.301 895.84C875.661 896.8 874.861 897.54 873.901 898.06C872.941 898.58 871.941 898.92 870.901 899.08C869.901 899.28 869.001 899.38 868.201 899.38ZM877.441 895.24C876.401 895.24 875.721 895.04 875.401 894.64C875.121 894.24 875.021 893.78 875.101 893.26C875.221 892.7 875.361 892.2 875.521 891.76L876.121 891.82C876.001 892.22 875.881 892.64 875.761 893.08C875.681 893.52 875.741 893.9 875.941 894.22C876.141 894.54 876.661 894.7 877.501 894.7C878.101 894.7 878.781 894.42 879.541 893.86C880.301 893.3 881.041 892.62 881.761 891.82C882.521 891.02 883.161 890.24 883.681 889.48L884.221 889.9C883.701 890.54 883.061 891.28 882.301 892.12C881.581 892.96 880.801 893.7 879.961 894.34C879.121 894.94 878.281 895.24 877.441 895.24Z" fill="#FFEABB"/>
<path d="M719.403 73V36.6364H741.207V40.5426H723.807V52.8295H739.574V56.7358H723.807V73H719.403ZM779.431 54.8182C779.431 58.6534 778.738 61.9678 777.354 64.7614C775.969 67.5549 774.069 69.7093 771.654 71.2244C769.239 72.7396 766.481 73.4972 763.38 73.4972C760.278 73.4972 757.52 72.7396 755.106 71.2244C752.691 69.7093 750.791 67.5549 749.406 64.7614C748.021 61.9678 747.329 58.6534 747.329 54.8182C747.329 50.983 748.021 47.6686 749.406 44.875C750.791 42.0814 752.691 39.9271 755.106 38.4119C757.52 36.8968 760.278 36.1392 763.38 36.1392C766.481 36.1392 769.239 36.8968 771.654 38.4119C774.069 39.9271 775.969 42.0814 777.354 44.875C778.738 47.6686 779.431 50.983 779.431 54.8182ZM775.17 54.8182C775.17 51.6695 774.643 49.0121 773.589 46.8459C772.548 44.6797 771.133 43.0402 769.346 41.9276C767.57 40.8149 765.581 40.2585 763.38 40.2585C761.178 40.2585 759.184 40.8149 757.396 41.9276C755.621 43.0402 754.206 44.6797 753.153 46.8459C752.111 49.0121 751.59 51.6695 751.59 54.8182C751.59 57.9669 752.111 60.6243 753.153 62.7905C754.206 64.9567 755.621 66.5961 757.396 67.7088C759.184 68.8215 761.178 69.3778 763.38 69.3778C765.581 69.3778 767.57 68.8215 769.346 67.7088C771.133 66.5961 772.548 64.9567 773.589 62.7905C774.643 60.6243 775.17 57.9669 775.17 54.8182ZM786.835 73V36.6364H799.122C801.963 36.6364 804.295 37.1217 806.118 38.0923C807.941 39.0511 809.29 40.371 810.166 42.0518C811.042 43.7327 811.48 45.6444 811.48 47.7869C811.48 49.9295 811.042 51.8293 810.166 53.4865C809.29 55.1437 807.947 56.4458 806.135 57.3928C804.324 58.3279 802.01 58.7955 799.193 58.7955H789.25V54.8182H799.051C800.992 54.8182 802.555 54.5341 803.738 53.9659C804.934 53.3977 805.798 52.5928 806.331 51.5511C806.875 50.4976 807.148 49.2429 807.148 47.7869C807.148 46.331 806.875 45.0585 806.331 43.9695C805.786 42.8804 804.916 42.04 803.721 41.4482C802.525 40.8445 800.945 40.5426 798.98 40.5426H791.238V73H786.835ZM803.952 56.6648L812.9 73H807.787L798.98 56.6648H803.952ZM716.278 97.6364H721.321L731.406 114.611H731.832L741.918 97.6364H746.96L733.821 119.014V134H729.418V119.014L716.278 97.6364ZM781.628 115.818C781.628 119.653 780.936 122.968 779.551 125.761C778.166 128.555 776.266 130.709 773.851 132.224C771.436 133.74 768.678 134.497 765.577 134.497C762.476 134.497 759.718 133.74 757.303 132.224C754.888 130.709 752.988 128.555 751.603 125.761C750.218 122.968 749.526 119.653 749.526 115.818C749.526 111.983 750.218 108.669 751.603 105.875C752.988 103.081 754.888 100.927 757.303 99.4119C759.718 97.8968 762.476 97.1392 765.577 97.1392C768.678 97.1392 771.436 97.8968 773.851 99.4119C776.266 100.927 778.166 103.081 779.551 105.875C780.936 108.669 781.628 111.983 781.628 115.818ZM777.367 115.818C777.367 112.67 776.84 110.012 775.787 107.846C774.745 105.68 773.33 104.04 771.543 102.928C769.767 101.815 767.779 101.259 765.577 101.259C763.375 101.259 761.381 101.815 759.593 102.928C757.818 104.04 756.403 105.68 755.35 107.846C754.308 110.012 753.787 112.67 753.787 115.818C753.787 118.967 754.308 121.624 755.35 123.79C756.403 125.957 757.818 127.596 759.593 128.709C761.381 129.821 763.375 130.378 765.577 130.378C767.779 130.378 769.767 129.821 771.543 128.709C773.33 127.596 774.745 125.957 775.787 123.79C776.84 121.624 777.367 118.967 777.367 115.818ZM812.896 97.6364H817.299V121.713C817.299 124.199 816.713 126.418 815.542 128.371C814.382 130.313 812.742 131.846 810.623 132.97C808.504 134.083 806.019 134.639 803.166 134.639C800.313 134.639 797.827 134.083 795.708 132.97C793.59 131.846 791.944 130.313 790.772 128.371C789.612 126.418 789.032 124.199 789.032 121.713V97.6364H793.436V121.358C793.436 123.134 793.826 124.714 794.608 126.099C795.389 127.472 796.502 128.555 797.946 129.348C799.402 130.129 801.142 130.52 803.166 130.52C805.19 130.52 806.93 130.129 808.386 129.348C809.842 128.555 810.955 127.472 811.724 126.099C812.505 124.714 812.896 123.134 812.896 121.358V97.6364Z" fill="#F7CEB0"/>
<path d="M869.5 73H1387.5V772" stroke="white" stroke-linecap="round"/>
<path d="M937.5 886.5H1295.5" stroke="white" stroke-linecap="round"/>
</svg>
